<svg id="visual" viewBox="0 0 900 600" width="900" height="600" xmlns="http://www.w3.org/2000/svg" xmlns:xlink="http://www.w3.org/1999/xlink" version="1.1"><rect x="0" y="0" width="900" height="600" fill="#fff"></rect><path d="M0 238L25 248.5C50 259 100 280 150 278.5C200 277 250 253 300 243C350 233 400 237 450 234.2C500 231.3 550 221.7 600 230.2C650 238.7 700 265.3 750 266.2C800 267 850 242 875 229.5L900 217L900 601L875 601C850 601 800 601 750 601C700 601 650 601 600 601C550 601 500 601 450 601C400 601 350 601 300 601C250 601 200 601 150 601C100 601 50 601 25 601L0 601Z" fill="#00bae9"></path><path d="M0 356L25 356.3C50 356.7 100 357.3 150 357C200 356.7 250 355.3 300 359.3C350 363.3 400 372.7 450 367C500 361.3 550 340.7 600 322.5C650 304.3 700 288.7 750 289C800 289.3 850 305.7 875 313.8L900 322L900 601L875 601C850 601 800 601 750 601C700 601 650 601 600 601C550 601 500 601 450 601C400 601 350 601 300 601C250 601 200 601 150 601C100 601 50 601 25 601L0 601Z" fill="#00bfea"></path><path d="M0 298L25 317.5C50 337 100 376 150 372.7C200 369.3 250 323.7 300 323C350 322.3 400 366.7 450 377C500 387.3 550 363.7 600 344.2C650 324.7 700 309.3 750 302.7C800 296 850 298 875 299L900 300L900 601L875 601C850 601 800 601 750 601C700 601 650 601 600 601C550 601 500 601 450 601C400 601 350 601 300 601C250 601 200 601 150 601C100 601 50 601 25 601L0 601Z" fill="#00c4ea"></path><path d="M0 419L25 409.3C50 399.7 100 380.3 150 376.3C200 372.3 250 383.7 300 383.3C350 383 400 371 450 374.7C500 378.3 550 397.7 600 404.2C650 410.7 700 404.3 750 391.3C800 378.3 850 358.7 875 348.8L900 339L900 601L875 601C850 601 800 601 750 601C700 601 650 601 600 601C550 601 500 601 450 601C400 601 350 601 300 601C250 601 200 601 150 601C100 601 50 601 25 601L0 601Z" fill="#00c9e9"></path><path d="M0 436L25 434C50 432 100 428 150 431.7C200 435.3 250 446.7 300 453.7C350 460.7 400 463.3 450 467.2C500 471 550 476 600 476.8C650 477.7 700 474.3 750 469.8C800 465.3 850 459.7 875 456.8L900 454L900 601L875 601C850 601 800 601 750 601C700 601 650 601 600 601C550 601 500 601 450 601C400 601 350 601 300 601C250 601 200 601 150 601C100 601 50 601 25 601L0 601Z" fill="#00cfe9"></path><path d="M0 493L25 491C50 489 100 485 150 473.8C200 462.7 250 444.3 300 438.2C350 432 400 438 450 443C500 448 550 452 600 458C650 464 700 472 750 478.3C800 484.7 850 489.3 875 491.7L900 494L900 601L875 601C850 601 800 601 750 601C700 601 650 601 600 601C550 601 500 601 450 601C400 601 350 601 300 601C250 601 200 601 150 601C100 601 50 601 25 601L0 601Z" fill="#00d3e7"></path><path d="M0 536L25 535.2C50 534.3 100 532.7 150 525.2C200 517.7 250 504.3 300 498.7C350 493 400 495 450 491C500 487 550 477 600 480.2C650 483.3 700 499.7 750 511.8C800 524 850 532 875 536L900 540L900 601L875 601C850 601 800 601 750 601C700 601 650 601 600 601C550 601 500 601 450 601C400 601 350 601 300 601C250 601 200 601 150 601C100 601 50 601 25 601L0 601Z" fill="#00d8e5"></path><path d="M0 534L25 536C50 538 100 542 150 538.8C200 535.7 250 525.3 300 525.7C350 526 400 537 450 542.8C500 548.7 550 549.3 600 553.7C650 558 700 566 750 564.2C800 562.3 850 550.7 875 544.8L900 539L900 601L875 601C850 601 800 601 750 601C700 601 650 601 600 601C550 601 500 601 450 601C400 601 350 601 300 601C250 601 200 601 150 601C100 601 50 601 25 601L0 601Z" fill="#00dde2"></path></svg>