<svg id="visual" viewBox="0 0 900 600" width="900" height="600" xmlns="http://www.w3.org/2000/svg" xmlns:xlink="http://www.w3.org/1999/xlink" version="1.1"><rect x="0" y="0" width="900" height="600" fill="#fff"></rect><path d="M0 228L18.8 229.8C37.7 231.7 75.3 235.3 112.8 253.7C150.3 272 187.7 305 225.2 314.3C262.7 323.7 300.3 309.3 337.8 296.2C375.3 283 412.7 271 450.2 262.3C487.7 253.7 525.3 248.3 562.8 267.8C600.3 287.3 637.7 331.7 675.2 352.3C712.7 373 750.3 370 787.8 374.3C825.3 378.7 862.7 390.3 881.3 396.2L900 402L900 601L881.3 601C862.7 601 825.3 601 787.8 601C750.3 601 712.7 601 675.2 601C637.7 601 600.3 601 562.8 601C525.3 601 487.7 601 450.2 601C412.7 601 375.3 601 337.8 601C300.3 601 262.7 601 225.2 601C187.7 601 150.3 601 112.8 601C75.3 601 37.7 601 18.8 601L0 601Z" fill="#00BAE9" stroke-linecap="round" stroke-linejoin="miter"></path></svg>